<svg width="35" height="27" viewBox="0 0 35 27" fill="none" xmlns="http://www.w3.org/2000/svg">
<path d="M0.853516 4.74797L17.798 13.2486L34.7426 4.74797C34.6799 3.66455 34.2067 2.64619 33.42 1.90146C32.6334 1.15673 31.5927 0.741989 30.5112 0.742188H5.08488C4.00338 0.741989 2.96273 1.15673 2.17606 1.90146C1.38939 2.64619 0.916243 3.66455 0.853516 4.74797Z" fill="white"/>
<path d="M34.7494 9.5L17.7985 18.0049L0.847656 9.5V22.0064C0.847656 23.1342 1.29413 24.2158 2.08886 25.0133C2.88358 25.8108 3.96147 26.2588 5.08538 26.2588H30.5117C31.6356 26.2588 32.7135 25.8108 33.5082 25.0133C34.303 24.2158 34.7494 23.1342 34.7494 22.0064V9.5Z" fill="white"/>
</svg>
