<svg width="15" height="17" viewBox="0 0 15 17" fill="none" xmlns="http://www.w3.org/2000/svg">
<path fill-rule="evenodd" clip-rule="evenodd" d="M2.93404 2.05036C4.24232 0.737536 6.01673 0 7.86692 0C9.71711 0 11.4915 0.737536 12.7998 2.05036C14.1081 3.36318 14.8431 5.14375 14.8431 7.00036C14.8431 8.85697 14.1081 10.6375 12.7998 11.9504L7.86692 16.9004L2.93404 11.9504C2.2862 11.3003 1.7723 10.5286 1.42169 9.67931C1.07108 8.82998 0.890625 7.91967 0.890625 7.00036C0.890625 6.08104 1.07108 5.17073 1.42169 4.32141C1.7723 3.47208 2.2862 2.70038 2.93404 2.05036ZM7.86692 9.00036C8.39552 9.00036 8.90247 8.78964 9.27625 8.41457C9.65002 8.0395 9.86001 7.53079 9.86001 7.00036C9.86001 6.46992 9.65002 5.96122 9.27625 5.58614C8.90247 5.21107 8.39552 5.00036 7.86692 5.00036C7.33832 5.00036 6.83138 5.21107 6.4576 5.58614C6.08382 5.96122 5.87384 6.46992 5.87384 7.00036C5.87384 7.53079 6.08382 8.0395 6.4576 8.41457C6.83138 8.78964 7.33832 9.00036 7.86692 9.00036Z" fill="white"/>
</svg>
