<svg width="78" height="78" viewBox="0 0 78 78" fill="none" xmlns="http://www.w3.org/2000/svg">
<path opacity="0.3" d="M39 45.5C33.6375 45.5 29.25 41.1125 29.25 35.75V16.25H48.75V35.75C48.75 41.1125 44.3625 45.5 39 45.5Z" fill="#06E7F2"/>
<path d="M61.75 16.25H55.25V9.75H22.75V16.25H16.25C12.675 16.25 9.75 19.175 9.75 22.75V26C9.75 34.2875 15.99 41.0475 24.0175 42.055C25.0453 44.4904 26.6507 46.639 28.6948 48.3151C30.7389 49.9911 33.1604 51.1443 35.75 51.675V61.75H22.75V68.25H55.25V61.75H42.25V51.675C44.8396 51.1443 47.2611 49.9911 49.3052 48.3151C51.3493 46.639 52.9547 44.4904 53.9825 42.055C62.01 41.0475 68.25 34.2875 68.25 26V22.75C68.25 19.175 65.325 16.25 61.75 16.25ZM16.25 26V22.75H22.75V35.165C18.98 33.8 16.25 30.225 16.25 26ZM39 45.5C33.6375 45.5 29.25 41.1125 29.25 35.75V16.25H48.75V35.75C48.75 41.1125 44.3625 45.5 39 45.5ZM61.75 26C61.75 30.225 59.02 33.8 55.25 35.165V22.75H61.75V26Z" fill="#06E7F2"/>
<path d="M61.75 16.25H55.25V9.75H22.75V16.25H16.25C12.675 16.25 9.75 19.175 9.75 22.75V26C9.75 34.2875 15.99 41.0475 24.0175 42.055C25.0453 44.4904 26.6507 46.639 28.6948 48.3151C30.7389 49.9911 33.1604 51.1443 35.75 51.675V61.75H22.75V68.25H55.25V61.75H42.25V51.675C44.8396 51.1443 47.2611 49.9911 49.3052 48.3151C51.3493 46.639 52.9547 44.4904 53.9825 42.055C62.01 41.0475 68.25 34.2875 68.25 26V22.75C68.25 19.175 65.325 16.25 61.75 16.25ZM16.25 26V22.75H22.75V35.165C18.98 33.8 16.25 30.225 16.25 26ZM39 45.5C33.6375 45.5 29.25 41.1125 29.25 35.75V16.25H48.75V35.75C48.75 41.1125 44.3625 45.5 39 45.5ZM61.75 26C61.75 30.225 59.02 33.8 55.25 35.165V22.75H61.75V26Z" fill="url(#paint0_linear_588_942)"/>
<path d="M61.75 16.25H55.25V9.75H22.75V16.25H16.25C12.675 16.25 9.75 19.175 9.75 22.75V26C9.75 34.2875 15.99 41.0475 24.0175 42.055C25.0453 44.4904 26.6507 46.639 28.6948 48.3151C30.7389 49.9911 33.1604 51.1443 35.75 51.675V61.75H22.75V68.25H55.25V61.75H42.25V51.675C44.8396 51.1443 47.2611 49.9911 49.3052 48.3151C51.3493 46.639 52.9547 44.4904 53.9825 42.055C62.01 41.0475 68.25 34.2875 68.25 26V22.75C68.25 19.175 65.325 16.25 61.75 16.25ZM16.25 26V22.75H22.75V35.165C18.98 33.8 16.25 30.225 16.25 26ZM39 45.5C33.6375 45.5 29.25 41.1125 29.25 35.75V16.25H48.75V35.75C48.75 41.1125 44.3625 45.5 39 45.5ZM61.75 26C61.75 30.225 59.02 33.8 55.25 35.165V22.75H61.75V26Z" fill="url(#paint1_linear_588_942)"/>
<defs>
<linearGradient id="paint0_linear_588_942" x1="84.2045" y1="83.4973" x2="-15.5585" y2="82.2582" gradientUnits="userSpaceOnUse">
<stop stop-color="#2B2B2B"/>
<stop offset="1" stop-color="#06E7F2"/>
</linearGradient>
<linearGradient id="paint1_linear_588_942" x1="84.2045" y1="83.4973" x2="-15.5585" y2="82.2582" gradientUnits="userSpaceOnUse">
<stop stop-color="#004F53"/>
<stop offset="1" stop-color="#06E7F2"/>
</linearGradient>
</defs>
</svg>
